<svg version="1" xmlns="http://www.w3.org/2000/svg" width="718.667" height="718.667" viewBox="0 0 539.000000 539.000000"><path d="M173.7 39.4c-52.2 21.7-95 39.6-95.1 39.8-.1.1-17.9 43-39.5 95.1C14.9 232.8.1 269.8.5 270.9c.3 1 18 44.1 39.4 95.6l38.8 93.8 94.9 39.3c56.2 23.4 95.7 39.2 96.9 38.9 1.1-.2 44.2-17.9 95.8-39.3l93.9-38.9 38.9-93.9c21.4-51.6 39.2-94.6 39.4-95.5.6-1.8-76.7-189.5-78.8-191.6C458.6 78.2 273.2 1.1 270 .4c-.8-.2-44.2 17.4-96.3 39zm101.8 25.2c.5 3.7 1.1 4.3 4.6 5.9 8 3.7 13.1 12 13.3 21.9l.1 5.8 42 17.4 41.9 17.4 3.1-3c7.5-7.3 20.4-7.9 27.7-1.4 1.6 1.5 3.3 0 24.3-21.2l22.6-22.9-13.2 17.5c-7.2 9.6-16.3 21.6-20 26.6-6.5 8.5-6.9 9.4-6.9 14.3 0 6.2-2.1 11.5-6.1 15.7l-3 3.1 17.2 41.4 17.1 41.4h7.2c5.9 0 7.9.4 11.7 2.7 5.7 3.4 9.2 7.3 11.4 13.1l1.7 4.4 14.6 1.1c8.1.6 21.9 1.7 30.7 2.4l16 1.2-30 2.3c-16.5 1.2-30.3 2.2-30.6 2.2-.4.1-1.4 2.2-2.4 4.8-3.9 10-15 17.1-25.5 16.1l-4.8-.5-15.7 38c-8.7 21-16 38.8-16.2 39.8-.3 1 .6 2.4 2.4 3.7 1.6 1.1 4.2 4.4 5.8 7.4 3.8 6.9 4.1 16 .7 22.5l-2.2 4.1 16.6 18.9c21.4 24.2 21.8 24.6 15.9 19.2-2.8-2.5-10.4-9.4-17-15.4s-13.7-12.5-15.7-14.4l-3.8-3.5-5.2 2.5c-10.2 4.8-21.1 2.6-29.3-5.8l-3.5-3.6-8.3 3.3c-4.5 1.9-22.3 9.3-39.5 16.5l-31.4 13-.2 6.5c-.2 4.3-1 7.9-2.3 10.5-4.1 7.7-12.3 13.5-19.3 13.5h-3l-.1 24.7-.1 24.8-1.9-22c-1-12.1-1.8-23.2-1.8-24.7-.1-2.1-.8-2.9-3.7-3.8-2-.7-5.4-2.8-7.6-4.8-5.7-5.1-8.1-10.4-8.4-18.2l-.2-6.5-28.9-12c-15.8-6.6-33.7-14-39.6-16.5l-10.8-4.4-3.6 3.8c-5.7 5.8-10.7 8-18.3 8.1-5.2 0-7.4-.5-11.2-2.6l-4.6-2.7-20.9 19.1c-12.5 11.6-18.8 16.8-15.7 13.2 2.9-3.3 11.3-12.9 18.7-21.4l13.6-15.4-2.2-4.1c-1.5-3-2.1-5.9-2.1-10.6 0-7.6 2.5-13.4 8.1-18.5 3-2.8 3.4-3.6 2.7-5.7-.5-1.4-9-22.2-18.9-46.1-17.9-43.5-18-43.6-21.2-44.3-1.8-.3-4.5-1.9-6.1-3.5l-2.8-2.9-36.9-2.2-37-2.3 36.8-2.2 36.7-2.2 2.9-2.9c1.6-1.6 4.4-3.3 6.3-3.8 3.3-1 3.5-1.4 19-38.9 8.7-20.9 18.1-43.7 20.9-50.6l5.2-12.6-2.7-3.9c-2.8-4.1-3.4-9.2-1.6-14 1-2.5.4-3.4-10.2-14.8-25.1-27-34.2-37-32.3-35.5 1.1.9 12.6 10.8 25.5 22l23.4 20.4 5.6-.3c4.6-.3 6.1.1 9.5 2.3l3.9 2.7 12.6-5.1c6.9-2.8 26.9-11.1 44.5-18.4l32-13.3.5-7.6c.5-6 1.2-8.4 3.3-11.7 3.4-5.2 10.5-9.8 16.3-10.7l4.4-.6.1-27.7.1-27.6 2.4 24c1.3 13.2 2.6 25.9 2.9 28.1z"/><path d="M202.8 123.3c-24.1 10-43.8 18.5-43.8 18.9 0 .5 12.9.8 28.7.8h28.7l17.3-17.3c13.2-13.1 17.2-17.7 16.7-19-.3-.9-1.4-1.7-2.3-1.6-.9 0-21.3 8.2-45.3 18.2zM288.6 106.6c-.6 1.4 3 5.6 16.7 19.1l17.3 17.3 26-.2c22.4-.3 25.9-.5 26.2-1.8.2-1.2-9.7-5.7-40.5-18.5-22.4-9.3-41.7-17-42.9-17.3-1.4-.2-2.4.3-2.8 1.4zM237.7 125.8c-8.7 8.7-15.7 16.1-15.7 16.5 0 1.3 23.7.8 24.8-.6 1-1.2 12.3-28 11.9-28.2-.1-.1-1.4-.8-2.8-1.7l-2.6-1.6-15.6 15.6zM282.9 112.1l-2.7 1.9 5.5 13.3c3 7.2 6 13.8 6.5 14.4 1.2 1.4 24.8 1.9 24.8.5 0-.4-7.1-7.8-15.7-16.4l-15.8-15.7-2.6 2zM256.3 127.8c-2.9 7.1-5.3 13.3-5.3 14 0 .8 2.1 1.2 6.5 1.2h6.5v-14c0-10.5-.3-14-1.2-14-.7 0-3.7 5.8-6.5 12.8zM275 129v14h6.5c4.4 0 6.5-.4 6.5-1.2 0-2.6-10.6-26.8-11.7-26.8-1 0-1.3 3.5-1.3 14zM158 147.1c0 .5 1.7 1.7 3.8 2.6 2 .9 10.5 4.4 18.8 7.8l15.2 6.3 8.8-8.9 8.9-8.9h-27.8c-18.7 0-27.7.3-27.7 1.1zM208.1 155.4c-9.2 9.3-9.4 9.5-7 10.5 1.3.6 8.7 3.7 16.4 7 13.8 5.7 14 5.8 15.1 3.7 1.4-2.5 12.4-29.2 12.4-30 0-.3-6.2-.6-13.8-.6h-13.7l-9.4 9.4zM248.7 146.7c-2.2 3.7-13.6 32.8-13 33.3.7.6 19.4 8.6 26.1 11.1l2.2.9v-46h-7.4c-4.1 0-7.7.3-7.9.7zM275 171.3v25.3l21.1 8.8c11.6 4.8 21.3 8.5 21.5 8.3.3-.2-5.8-15.4-13.4-33.8l-13.8-33.4-7.7-.3-7.7-.3v25.4zM294 146.6c0 .3 5.9 15 13.2 32.5l13.2 32 16.5-16.6 16.6-16.5-16-16-16-16h-13.7c-7.6 0-13.8.3-13.8.6zM340.5 161l15 15 10.8-10.8 10.9-10.9-1.3-4.1-1.2-4.2h-49.2l15 15zM172 164.4l11.4 11.6 4.8-4.7c2.6-2.6 4.5-5 4-5.4-.6-.6-25.8-11.1-30.2-12.7-.8-.2 3.7 4.8 10 11.2zM146 185.7v27.8l8.9-8.9 8.9-8.8-5.8-14.2c-8.9-21.6-9.8-23.6-11-23.6-.7 0-1 9.3-1 27.7zM127.1 193.7c-7.9 19.2-17.3 41.8-20.8 50.3l-6.4 15.5 21.6-21.5 21.5-21.6v-28.7c0-15.8-.3-28.7-.8-28.7-.4 0-7.2 15.6-15.1 34.7zM153.4 162.4c1.5 4.2 11.9 29.2 12.5 29.8.4.5 2.8-1.4 5.4-4l4.7-4.8-11.6-11.4c-6.4-6.3-11.4-10.7-11-9.6zM373.7 172.8L363 183.6l4.9 4.8c5 4.9 5 4.9 6 2.5.5-1.3 3.4-8.4 6.5-15.7 3-7.2 5.2-13.2 4.8-13.2-.4 0-5.6 4.8-11.5 10.8zM388.1 164.8c-.5 1-3.6 8.3-6.9 16.3l-6 14.7 8.9 8.8 8.9 8.9v-24.7c0-23.8-.1-24.6-2-25.1-1.3-.3-2.4.1-2.9 1.1zM396.7 164.7c-.4.3-.7 12.1-.7 26.2v25.5l16.7 16.8c9.2 9.2 17 16.8 17.3 16.8.3 0 1.3-.7 2.3-1.4 1.7-1.3.6-4.1-15.5-43-9.5-22.9-17.7-41.6-18.3-41.6-.7 0-1.5.3-1.8.7zM190.5 173l-5 5 16.6 16.6 16.5 16.5 5.7-13.8c3.1-7.6 5.7-14.3 5.7-14.9 0-1.1-30.8-14.4-33.3-14.4-.7 0-3.5 2.3-6.2 5zM227.2 198.2l-6.3 15.2 21.6 21.6 21.5 21.5v-61.2l-15-6.2c-8.2-3.3-15.1-6.1-15.3-6.1-.2 0-3.1 6.8-6.5 15.2zM172.6 190.9c-3.5 3.6-4.7 5.5-4.4 6.9 1.1 4.1 27.2 66.2 27.8 66.2.4 0 4.6-9.5 9.4-21.2l8.8-21.1-17.9-17.9c-9.8-9.8-18-17.8-18.3-17.8-.3 0-2.8 2.2-5.4 4.9zM344.2 202.3l-16.3 16.3 13.9 5.7c7.6 3.1 14.3 5.7 14.9 5.7 1 0 14.3-30.9 14.3-33.3 0-1.2-8.9-10.7-10-10.7-.3 0-7.8 7.3-16.8 16.3zM155.2 208.3l-9.2 9.2V264h46l-.9-2.3c-3.5-9.1-25.4-61.4-26-61.9-.4-.4-4.8 3.4-9.9 8.5zM372.4 202.6c-.9 2.1-4 9.6-6.9 16.6l-5.3 12.7 7.2 3c19.4 8 24.5 10.1 25 10.1.3 0 .6-6.2.6-13.8v-13.7l-9.5-9.5-9.4-9.4-1.7 4zM275 228.3v28.2l20-20c10.9-10.9 19.8-20 19.7-20.1-.3-.2-28.8-12.1-34.9-14.5L275 200v28.3zM325 221.5c0 1.4 17.4 42.5 18 42.5.7 0 13.3-30 12.8-30.5-.5-.4-29.7-12.5-30.3-12.5-.3 0-.5.2-.5.5zM121.2 242.3c-11.1 11.2-20 20.6-19.6 21 .4.4 9.9.7 21.1.7H143v-21c0-11.6-.3-21-.8-21-.4 0-9.8 9.1-21 20.3zM396 233.9c0 8.3.4 12.2 1.3 12.9.6.5 6.8 3.3 13.7 6.1l12.5 5.2 2.2-2.8 2.3-2.8-15.3-15.3c-8.3-8.3-15.5-15.2-15.9-15.2-.5 0-.8 5.3-.8 11.9zM208.3 243.7l-8.1 19.8 13.9.3c7.6.1 20.2.1 27.9 0l14-.3-19.8-19.8-19.8-19.7-8.1 19.7zM302.5 244l-20 20H339l-.9-2.3c-1.5-3.8-15.3-37.2-15.5-37.4-.1-.1-9.2 8.8-20.1 19.7zM358.7 235.7c-.4.7-8.8 21-10.8 26l-.9 2.3h46.1l-.3-7.7-.3-7.7-16-6.7c-17.3-7.3-17.2-7.3-17.8-6.2zM396 257.5v6.5h12.9c17.6 0 17.8-1.2 1.8-7.9-6.7-2.8-12.8-5.1-13.5-5.1-.8 0-1.2 2-1.2 6.5zM101.5 275.8c-.6.7 39.5 41.2 40.7 41.2 1.4 0 .9-23.6-.4-24.8-2.1-1.7-39.7-17-40.3-16.4zM112 275.9c2.5 1.5 28.9 12.1 30 12.1.6 0 1-2.8 1-6.5V275h-16.2c-9.6 0-15.7.4-14.8.9zM146.2 282.7l.3 7.7 16.4 6.8c9.1 3.7 16.8 6.5 17.2 6.1.6-.7 7.3-16.7 11-26.1l.9-2.2h-46.1l.3 7.7zM189.1 290.1c-3.4 8.3-6.1 15.2-5.9 15.4.9.8 30.2 12.4 30.5 12.1.6-.6-16.9-42.6-17.7-42.6-.3 0-3.4 6.8-6.9 15.1zM200.9 277.2c1.5 3.9 15.3 37.3 15.5 37.5.1.1 9.2-8.8 20.1-19.7l20-20H200l.9 2.2zM302.5 295c10.9 10.9 20 19.8 20.1 19.7.2-.2 14-33.6 15.5-37.5l.9-2.2h-56.5l20 20zM333.6 296.2l-8.8 21.1 18.1 18.1 18.1 18.1 5-5c2.7-2.7 5-5.5 5-6.2 0-1.9-27.3-67.3-28-67.3-.4 0-4.6 9.5-9.4 21.2zM347.9 277.2c2 5.1 25.3 61.4 25.8 62.2.3.4 4.8-3.4 9.9-8.5l9.4-9.4V275h-46l.9 2.2zM396 296c0 11.5.3 21 .7 21 .4 0 7.6-6.8 16-15.2l15.2-15.2-2-2.7c-1.1-1.6-2.5-4.2-3-5.9l-1.1-3H396v21zM104.9 291.5c11 26.8 32.1 77.8 32.6 78.5.2.4 1.6.5 3 .2l2.5-.4v-47.2L121.5 301 100 279.5l4.9 12zM243.7 302.8L224 322.5l19.7 8.2 19.8 8.1.3-13.9c.1-7.6.1-20.2 0-27.9l-.3-14-19.8 19.8zM275 313.1v30.5l15.1 6.3c8.3 3.4 15.2 6.1 15.4 5.9.2-.2 3.1-7 6.4-15.3l6.2-14.9-21.6-21.6-21.5-21.5v30.6zM412.7 305.8L396 322.6v47.2l2.5.4c1.4.3 2.8.2 3-.2.3-.4 7.7-18.2 16.5-39.5 15-36.2 16-38.8 14.3-40.1-1-.7-2-1.4-2.3-1.4-.3 0-8.1 7.6-17.3 16.8zM146 307.8v13.7l9.5 9.5 9.4 9.4 1.7-4c11.5-27.3 12.3-29.5 10.6-30.1-.9-.4-8-3.3-15.7-6.5-7.7-3.2-14.3-5.8-14.7-5.8-.5 0-.8 6.2-.8 13.8zM174.6 325c-3.6 8.8-6.6 16.6-6.6 17.3 0 .7 2.3 3.5 5 6.2l5 5 16.6-16.6 16.5-16.5-13.8-5.7c-7.6-3.1-14.3-5.7-14.9-5.7-.6 0-4.1 7.2-7.8 16zM221.1 325.7c0 .5 6.2 15.6 13.8 33.8l13.7 33 7.7.3 7.7.3v-50.8l-21-8.7c-11.5-4.7-21.2-8.6-21.5-8.6-.3 0-.5.3-.4.7zM146 347.7v22.1l3.1.7c1.7.4 3.2.5 3.3.3.1-.1 2.7-6.4 5.8-13.9l5.6-13.7-8.9-8.8-8.9-8.9v22.2zM383.9 334.6l-8.7 8.6 5.7 14 5.6 13.9 2.9-.6c1.6-.3 3.1-.7 3.3-.9.2-.2.2-10.1.1-22l-.3-21.6-8.6 8.6zM202 344.5L185.5 361l16 16 16 16h13.7c7.6 0 13.8-.3 13.8-.6 0-.6-26-63.7-26.4-64.1-.1-.1-7.6 7.2-16.6 16.2zM314.7 341.7c-3.1 7.6-5.7 14.3-5.7 14.9 0 1.1 31.2 14.5 33.5 14.4.6 0 3.3-2.3 6-5l5-5-16.6-16.6-16.5-16.5-5.7 13.8zM165.1 348.1c-.5 1.3-3 7.3-5.5 13.3-2.5 6-4.6 11-4.6 11.1 0 .2.6.5 1.4.8.8.3 5.1-3.2 10.5-8.7l9.1-9.2-4.9-4.9c-5-4.8-5-4.8-6-2.4zM367.7 350.8l-4.7 4.8 9.3 9.1c12.3 12.4 13.4 11.6 6.6-4.8-2.9-6.8-5.5-12.7-5.8-13.1-.4-.5-2.8 1.4-5.4 4zM275 370.1v23l7.7-.3 7.7-.3 6.8-16.4c3.8-9.1 6.5-16.8 6.1-17.2-.7-.6-11.5-5.2-23.5-10L275 347v23.1zM306 362.8c-2.1 4.7-12 29.1-12 29.6 0 .3 6.2.6 13.8.6h13.7l9.5-9.5 9.4-9.4-4-1.7c-2.1-.9-9.6-4-16.5-6.9l-12.7-5.3-1.2 2.6zM174.4 372.2l-9 9.3 2 5.7 2.1 5.8h44l-15-15c-8.2-8.3-15-15-15-15s-4.1 4.2-9.1 9.2zM350.5 367.9c-4.8 5-4.8 5-2.4 6 2 .8 20.2 8.3 23.5 9.7.6.3 1.4-.1 1.7-.9.3-.9-3-4.9-8.7-10.6l-9.2-9.1-4.9 4.9zM334.4 384.1l-8.9 8.9h44.3l.7-3.1c.4-1.7.5-3.2.3-3.3-.1-.1-6.4-2.8-13.9-5.8l-13.6-5.6-8.9 8.9zM168.8 398.5c-.3 1.4-.2 2.7.1 3 1.6.9 78.3 32.5 79.1 32.5.5 0 1.4-.8 1.9-1.8.8-1.6-1.6-4.5-16.3-19L216.4 396h-47.2l-.4 2.5zM222 396.8c0 .4 7 7.7 15.5 16.2l15.5 15.5 2.7-1.7c1.6-1 2.7-2.2 2.5-2.9-.6-2.5-10.5-25.5-11.4-26.7-1.2-1.3-24.8-1.8-24.8-.4zM251 397.1c0 .6 2.3 6.6 5.1 13.5 6.8 16.6 7.9 16.4 7.9-1.1V396h-6.5c-4 0-6.5.4-6.5 1.1zM275 409.5c0 17.5 1.1 17.7 7.9 1.1 2.8-6.9 5.1-12.9 5.1-13.5 0-.7-2.5-1.1-6.5-1.1H275v13.5zM292.2 397.2c-1.4 1.8-11.2 25.4-11.2 27.1 0 .8 1.1 2 2.5 2.7 2.5 1.4 2.9 1.1 18-14 8.5-8.5 15.5-15.8 15.5-16.2 0-1.4-23.6-.9-24.8.4zM305.4 413.2c-14.7 14.5-17.1 17.4-16.3 19 .5 1 1.4 1.8 1.9 1.8.9 0 74.9-30.4 78.1-32.1 1.1-.5 1.5-1.7 1.2-3.4l-.5-2.5h-47.2l-17.2 17.2z"/></svg>